<?xml version="1.0" encoding="utf-8"?>
<!-- Generator: Adobe Illustrator 22.1.0, SVG Export Plug-In . SVG Version: 6.00 Build 0)  -->
<svg version="1.1"
	 id="Layer_1" xmlns:cc="http://creativecommons.org/ns#" xmlns:dc="http://purl.org/dc/elements/1.1/" xmlns:inkscape="http://www.inkscape.org/namespaces/inkscape" xmlns:rdf="http://www.w3.org/1999/02/22-rdf-syntax-ns#" xmlns:sodipodi="http://sodipodi.sourceforge.net/DTD/sodipodi-0.dtd" xmlns:svg="http://www.w3.org/2000/svg"
	 xmlns="http://www.w3.org/2000/svg" xmlns:xlink="http://www.w3.org/1999/xlink" x="0px" y="0px" viewBox="0 0 100 125"
	 style="enable-background:new 0 0 100 125;" xml:space="preserve">
<g transform="translate(0,-952.36218)">
	<path d="M50,968.4c-18.2,0-33,14.8-33,33c0,17.2,13.2,31.4,30,32.9v7.1h-8c-1.7,0-3,1.3-3,3s1.3,3,3,3h8v8c0,1.7,1.3,3,3,3
		c1.7,0,3-1.3,3-3v-8h8c1.7,0,3-1.3,3-3s-1.3-3-3-3h-8v-7.1c16.8-1.5,30-15.7,30-32.9C83,983.2,68.2,968.4,50,968.4z M50,974.4
		c14.9,0,27,12.1,27,27c0,14.9-12.1,27-27,27c-14.9,0-27-12.1-27-27C23,986.4,35.1,974.4,50,974.4z"/>
</g>
</svg>
