<?xml version="1.0" encoding="utf-8"?>
<!-- Generator: Adobe Illustrator 22.1.0, SVG Export Plug-In . SVG Version: 6.00 Build 0)  -->
<svg version="1.1" id="Layer_1" xmlns="http://www.w3.org/2000/svg" xmlns:xlink="http://www.w3.org/1999/xlink" x="0px" y="0px"
	 viewBox="0 0 100 100" style="enable-background:new 0 0 100 100;" xml:space="preserve">
<style type="text/css">
	.st0{fill:#FFFFFF;}
</style>
<path class="st0" d="M8.5,36.6c0.1-0.3,0.2-0.7,0.3-1c0.4-0.8,1.1-1.1,1.9-1.2c0.7,0,1.2,0.2,1.7,0.7c0.1-0.1,0.1-0.2,0.1-0.3
	c0-0.3,0.4-0.5,0.7-0.4c0.1,0.1,0.1,0.2,0.1,0.3c0,1.5,0,2.9,0,4.4c0,0.1,0,0.2,0,0.3c0,0,0,0,0,0c0.2-0.3,0.5-0.7,0.7-1
	c0.5-0.9,1-1.7,1.5-2.6c0.2-0.4,0.3-0.7,0.4-1.1c0-0.1,0.1-0.2,0.2-0.2c0.1,0,0.3,0,0.4,0c0.2,0,0.3,0.1,0.3,0.3c0,1,0,2-0.1,2.9
	c0,0.3,0.1,0.6,0.3,0.8c0.4,0.5,0.9,0.5,1.5,0.1c0.7-0.4,1-1,1.4-1.6c0.3-0.5,0.6-1,0.7-1.5c0-0.2,0-0.3-0.1-0.4
	c-0.5-0.4-0.2-1.4,0.2-1.6c0.2-0.2,0.6,0,0.7,0.3c0.1,0.2,0.1,0.4,0.1,0.6c0,0.2,0.1,0.3,0.3,0.2c0.4-0.1,0.8-0.1,1.2-0.1
	c0.5,0,0.7,0.3,0.8,0.8c0.1,0.7,0,1.4,0.1,2.1c0,0.3,0.1,0.6,0.2,0.9c0.3,0.6,0.7,0.7,1.3,0.5c0.6-0.2,1.1-0.6,1.5-1.2
	c0.5-0.6,0.8-1.4,1.2-2c0.1-0.1,0-0.3,0-0.4c-0.1-0.8-0.2-1.6-0.2-2.4c-0.1-2-0.1-3.9,0-5.9c0-0.7,0.2-1.4,0.5-2.1
	c0.4-0.8,1.6-0.9,2.2-0.4c0.7,0.5,1,1.2,1.2,2c0.2,1.2,0,2.3-0.3,3.5c-0.6,2-1.5,3.8-2.5,5.6c-0.1,0.2,0,0.3,0,0.4
	c0.1,0.6,0.2,1.3,0.5,1.9c0,0.1,0,0.1,0.1,0.2c0.5,1,1.1,1,2,0.4c0.7-0.5,1-1.2,1.4-1.9c0.5-0.7,1.1-1.4,1.6-2.1
	c0.1-0.2,0.3-0.4,0.5-0.6c0.1-0.2,0.2-0.1,0.3,0c0.2,0.2,0.3,0.4,0,0.7c1.4-0.2,2.3,0.9,2.3,2.1c0,0.6-0.1,1.3-0.5,1.9
	c0.6-0.1,1-0.3,1.4-0.6c0.3-0.2,0.5-0.5,0.7-0.8c0.2-0.3,0.3-0.1,0.5,0c0.1,0.1,0.3,0.2,0.2,0.4c-0.6,0.9-1.4,1.5-2.4,1.7
	c-0.3,0.1-0.7,0.2-1,0c-0.1,0-0.2,0-0.2,0c-0.2,0.1-0.5,0.1-0.7,0.2c-1.1,0.3-2.4-0.8-2.4-2c-0.2,0.3-0.4,0.5-0.5,0.8
	c-0.3,0.5-0.7,0.9-1.3,1.1c-1.2,0.5-1.9,0.1-2.4-0.9c-0.3-0.5-0.4-1.1-0.6-1.7c-0.2,0.3-0.4,0.6-0.6,0.9c-0.5,0.9-1.2,1.5-2.2,1.8
	c-1.2,0.4-2-0.1-2.3-1.4c-0.1-0.6-0.1-1.2-0.1-1.9c0-0.2,0-0.5,0-0.7c0-0.2-0.1-0.3-0.3-0.3c-0.4,0-0.8,0.1-1.2,0.1
	c-0.1,0-0.2,0.1-0.2,0.2c-0.4,1.2-1,2.4-1.9,3.3c-0.6,0.5-1.2,0.8-2,0.7c-0.8-0.1-1.5-0.8-1.5-1.7c0-0.4,0-0.9,0.1-1.4
	c-0.4,0.7-0.8,1.4-1.2,2c-0.4,0.7-0.9,1.4-1.4,2.1c-0.1,0.1-0.1,0.2-0.1,0.4c0,1.3,0,2.6,0,3.9c0,1,0,2-0.3,3
	c-0.2,0.7-0.5,1.3-1.2,1.5c-1.2,0.4-1.9-0.2-2.1-1.2c-0.1-0.4-0.2-0.8-0.2-1.3c0-1.1,0.4-2.1,0.9-3.1c0.6-1.1,1.3-2.1,2-3.1
	c0.1-0.1,0.2-0.3,0.1-0.5c0-0.5,0-0.9,0-1.5c-0.2,0.2-0.4,0.3-0.6,0.5c-1.1,0.6-2,0.5-2.9-0.4c-0.3-0.3-0.4-0.7-0.5-1
	c0-0.1,0-0.1-0.1-0.1C8.5,37.4,8.5,37,8.5,36.6z M28.7,34.3c0.1,0,0.1-0.1,0.1-0.1c0.5-1,1-2,1.4-3.1c0.5-1.3,1-2.7,0.8-4.2
	c-0.1-0.7-0.3-1.3-0.8-1.7c-0.4-0.4-0.9-0.3-1.2,0.1c-0.1,0.1-0.2,0.3-0.2,0.5c-0.2,0.7-0.2,1.3-0.2,2c0,1.8,0,3.5,0.1,5.3
	C28.6,33.5,28.6,33.9,28.7,34.3z M12.6,42c-0.1,0-0.1,0-0.1,0.1c-0.7,1-1.4,2.1-1.9,3.2c-0.4,0.9-0.4,1.8-0.2,2.7
	c0.2,0.8,0.8,0.9,1.4,0.6c0.3-0.2,0.5-0.6,0.6-1c0.3-1,0.2-2.1,0.3-3.2C12.6,43.7,12.6,42.9,12.6,42z M12.6,37.1
	c0-0.6-0.1-0.8-0.3-1.2c-0.6-1-2.1-1-2.6-0.3c-0.5,0.7-0.6,1.5-0.3,2.3c0.3,0.7,1.1,1.1,1.9,0.8C11.9,38.5,12.7,37.8,12.6,37.1z
	 M36.9,37c0.1-0.9-0.5-1.5-1.2-1.7c-0.4-0.1-0.7-0.1-1,0.2c-0.2,0.3-0.5,0.6-0.7,0.9c-0.1,0.1-0.3,0.3-0.2,0.5
	c0.1,0.2,0.1,0.5,0.2,0.7c0.1,0.4,0.3,0.8,0.6,1c0.5,0.4,1.1,0.3,1.7,0C36.7,38.2,36.9,37.6,36.9,37z"/>
<path class="st0" d="M68.2,37.4c0-0.9,0-1.8,0-2.7c0-0.2,0.1-0.3,0.3-0.3c0.4,0,0.9,0,1.3,0c0.2,0,0.2,0,0.2,0.2c0,0,0,0.1,0,0.1
	c0,7.4,0,14.7,0,22.1c0,0.3,0,0.3-0.3,0.3c-4.9,0-9.9,0-14.8,0c-0.3,0-0.3-0.1-0.3-0.3c0-4.9,0-9.8,0-14.6c0-0.2,0-0.3,0.3-0.3
	c3.7,0,7.4,0,11.1,0c0.2,0,0.3,0,0.3,0.3c0,0.4,0,0.8,0,1.2c0,0.2-0.1,0.3-0.3,0.3c-2.2,0-4.5,0-6.7,0c-0.9,0-1.8,0-2.7,0
	c-0.2,0-0.3,0.1-0.3,0.3c0,3.8,0,7.7,0,11.5c0,0.2,0,0.3,0.3,0.3c3.8,0,7.7,0,11.5,0c0.2,0,0.3,0,0.3-0.2c0-5.7,0-11.5,0-17.2
	c0,0,0-0.1,0-0.1C68.2,37.9,68.2,37.7,68.2,37.4z"/>
<path class="st0" d="M81.2,57.2c-2.5,0-5,0-7.4,0c-0.2,0-0.3-0.1-0.3-0.3c0-4.9,0-9.8,0-14.7c0-0.2,0.1-0.3,0.3-0.3
	c5,0,9.9,0,14.9,0c0.2,0,0.3,0,0.3,0.3c0,1.4,0,2.9,0,4.3c0,0.3-0.1,0.3-0.3,0.3c-3.7,0-7.4,0-11.1,0c-0.3,0-0.3-0.1-0.3-0.3
	c0-0.4,0-0.7,0-1.1c0-0.2,0.1-0.3,0.3-0.3c2.3,0,4.6,0,6.9,0c0.8,0,1.7,0,2.5,0c0.2,0,0.3,0,0.2-0.2c0-0.3,0-0.7,0-1
	c0-0.2-0.1-0.3-0.3-0.3c-1.9,0-3.8,0-5.7,0c-1.9,0-3.8,0-5.8,0c-0.2,0-0.3,0-0.3,0.3c0,3.8,0,7.5,0,11.3c0,0.2,0.1,0.3,0.3,0.3
	c4.4,0,8.7,0,13.1,0c0.4,0,0.4,0,0.4,0.4c0,0.3,0,0.7,0,1c0,0.3,0,0.3-0.3,0.3C86.2,57.2,83.7,57.2,81.2,57.2z"/>
<path class="st0" d="M43.2,57.2c-2.5,0-4.9,0-7.4,0c-0.2,0-0.3,0-0.3-0.3c0-4.9,0-9.8,0-14.7c0-0.2,0.1-0.3,0.3-0.3
	c5,0,9.9,0,14.9,0c0.2,0,0.3,0.1,0.3,0.3c0,4.9,0,9.8,0,14.7c0,0.2-0.1,0.3-0.3,0.3C48.1,57.2,45.6,57.2,43.2,57.2z M43.3,55.5
	c1.9,0,3.9,0,5.8,0c0.2,0,0.3-0.1,0.3-0.3c0-3.8,0-7.5,0-11.3c0-0.2,0-0.3-0.3-0.3c-3.9,0-7.8,0-11.7,0c-0.2,0-0.3,0.1-0.3,0.3
	c0,3.8,0,7.5,0,11.3c0,0.2,0.1,0.3,0.3,0.3C39.4,55.5,41.3,55.5,43.3,55.5z"/>
<path class="st0" d="M24.1,57.2c-2.5,0-5,0-7.5,0c-0.2,0-0.3-0.1-0.3-0.3c0-4.9,0-9.8,0-14.7c0-0.2,0.1-0.3,0.3-0.3
	c5,0,9.9,0,14.9,0c0.2,0,0.3,0.1,0.3,0.3c0,0.4,0,0.8,0,1.1c0,0.3-0.1,0.3-0.3,0.3c-2.3,0-4.5,0-6.8,0c-2.1,0-4.2,0-6.3,0
	c-0.2,0-0.3,0-0.3,0.3c0,3.8,0,7.5,0,11.3c0,0.3,0.1,0.3,0.3,0.3c4.4,0,8.8,0,13.1,0c0.2,0,0.3,0.1,0.3,0.3c0,0.4,0,0.8,0,1.1
	c0,0.2-0.1,0.3-0.3,0.3C29.1,57.2,26.6,57.2,24.1,57.2z"/>
<path class="st0" d="M68.2,37.4c0,0.2,0,0.5,0,0.7c-0.3,0-0.6,0-0.8-0.2c-0.2-0.1-0.2,0-0.3,0.1c-0.3,0.7-0.7,1.2-1.4,1.4
	c-0.9,0.3-1.9,0-2.4-0.9c-0.1-0.1-0.1-0.2-0.2-0.3c-0.2,0.3-0.5,0.6-0.8,0.8c-0.6,0.5-1.3,0.6-2,0.4c-0.5-0.1-0.7-0.5-0.8-0.9
	c-0.1-0.5-0.1-0.9-0.1-1.4c0-0.5,0-1.1-0.1-1.6c-0.1-0.4-0.3-0.5-0.7-0.4c-0.7,0.2-1.2,0.7-1.5,1.3c-0.1,0.1,0,0.2,0,0.3
	c0,0.8,0,1.6,0,2.5c0,0.2,0,0.3-0.3,0.3c-0.5,0-0.5,0-0.5-0.5c0-1,0-2,0-3c0-0.1,0-0.2,0-0.3c-0.5,0.4-1.1,0.8-1.7,0.8
	c-0.6,0.1-0.8,0.4-1,0.9c-0.3,0.8-0.8,1.4-1.5,1.9c-0.6,0.4-1.4,0.4-1.9,0c-0.3-0.3-0.5-0.7-0.6-1.1c0-0.1-0.1-0.3-0.1-0.4
	c-0.2,0.4-0.3,0.8-0.5,1.1c-0.2,0.3-0.5,0.7-0.9,0.8c-0.6,0.1-1.2-0.2-1.6-0.8c-0.3-0.5-0.4-1.1-0.5-1.7c-0.1-0.5-0.1-1.1-0.2-1.6
	c0-0.1,0-0.2-0.1-0.2c-0.1,0-0.1,0.1-0.2,0.2c-0.5,0.6-0.8,1.2-1.2,1.9c-0.1,0.1-0.1,0.3-0.3,0.2c-0.2,0-0.3-0.1-0.4-0.3
	c0-0.1,0-0.1,0-0.2c0.4-0.7,0.8-1.5,1.4-2.2c0.2-0.3,0.5-0.5,0.9-0.5c0.4,0.1,0.5,0.4,0.6,0.8c0.2,0.8,0.3,1.5,0.4,2.3
	c0.1,0.4,0.2,0.7,0.4,1c0.3,0.4,0.8,0.4,1.1,0c0.4-0.6,0.5-1.3,0.6-2c0.1-0.6,0.2-1.1,0.2-1.7c0-0.1,0-0.3,0.1-0.3
	c0.2,0,0.4-0.1,0.6,0c0.1,0,0.1,0.1,0.1,0.2c0,0.7,0,1.3,0.1,2c0.1,0.5,0.1,1.1,0.4,1.5c0.3,0.6,0.8,0.7,1.4,0.3
	c0.7-0.5,1-1.3,1.3-2.1c0-0.1,0-0.2-0.1-0.2c-0.4-0.4-0.3-1.4,0-1.8c0.2-0.2,0.4-0.2,0.6,0c0.3,0.3,0.3,0.7,0.3,1
	c0,0.4,0,0.4,0.3,0.3c0.7-0.1,1.2-0.6,1.8-1c0.1-0.1,0.1-0.2,0.1-0.3c0-2.4,0-4.9,0-7.3c0-0.6,0-1.2,0.3-1.8c0.4-1,1.4-1.3,2.3-0.7
	c0.7,0.5,1.1,1.3,1.1,2.2c0.1,1.1-0.3,2-0.6,3c-0.6,1.5-1.4,3-2.2,4.4C57,34.7,56.9,35,57,35.3c0.3-0.3,0.7-0.6,1.1-0.7
	c0.2-0.1,0.4-0.1,0.6-0.1c0.7,0,1.2,0.4,1.3,1.2c0.1,0.6,0.1,1.2,0.1,1.8c0,0.3,0,0.5,0,0.8c0.1,0.8,0.7,0.9,1.3,0.7
	c0.4-0.1,0.6-0.5,0.9-0.8c0.1-0.1,0.2-0.2,0.2-0.3c0.2-0.3,0.3-0.6,0.4-1c0.2-1.5,1.3-2.4,2.5-2.3c0.5,0,1,0.2,1.4,0.6
	c0.2,0.2,0.3,0.4,0,0.6c0.4,0.2,0.5,0.5,0.5,0.9c0,0,0,0,0,0C67.3,37.3,67.5,37.4,68.2,37.4z M57,33.4C57,33.4,57,33.4,57,33.4
	c0.3-0.4,0.5-0.8,0.7-1.2c0.7-1.4,1.3-2.9,1.5-4.5c0.1-0.7,0-1.4-0.5-2c-0.2-0.3-0.5-0.5-0.9-0.4c-0.4,0.1-0.6,0.4-0.7,0.7
	c-0.1,0.3-0.1,0.7-0.1,1C57,29.2,57,31.3,57,33.4z M65.3,35.2c-0.6,0-1.1,0.3-1.4,0.9c-0.3,0.6-0.3,1.1-0.2,1.7
	c0.2,1,1.2,1.4,2.1,0.8c0.3-0.2,0.4-0.5,0.6-0.8c0.1-0.2,0.1-0.4,0-0.7c-0.3-0.4-0.4-0.8,0-1.2c0.1-0.1,0-0.2-0.1-0.3
	C66,35.3,65.7,35.2,65.3,35.2z"/>
<path class="st0" d="M16.5,31c0.3,0,0.6,0.2,0.6,0.6c0,0.3-0.4,0.6-0.7,0.6c-0.3,0-0.5-0.2-0.5-0.6C15.8,31.2,16.1,31,16.5,31z"/>
<g>
	<path class="st0" d="M18.5,72.9h5.7v2.2h-8.2V61.3h2.5V72.9z"/>
	<path class="st0" d="M26.5,61.3H29v13.8h-2.5V61.3z"/>
	<path class="st0" d="M34,61.3L37.4,72l3.4-10.7h2.6l-4.7,13.8h-2.6l-4.7-13.8H34z"/>
	<path class="st0" d="M51.2,61c0.9,0,1.8,0.2,2.5,0.5c0.8,0.3,1.4,0.8,2,1.4c1.2,1.2,1.7,3,1.7,5.4c0,2.3-0.6,4.2-1.7,5.4
		c-1.1,1.2-2.6,1.8-4.5,1.8c-1.9,0-3.4-0.6-4.5-1.8c-1.2-1.3-1.7-3.1-1.7-5.4c0-2.4,0.6-4.2,1.7-5.4C47.7,61.6,49.2,61,51.2,61z
		 M54.8,68.2c0-1.6-0.3-2.8-1-3.7c-0.7-0.9-1.6-1.3-2.7-1.3c-1.1,0-2,0.4-2.7,1.3c-0.7,0.9-1,2.1-1,3.7c0,1.6,0.3,2.8,1,3.6
		c0.7,0.8,1.6,1.3,2.7,1.3c1.1,0,2-0.4,2.7-1.3C54.5,71,54.8,69.8,54.8,68.2z"/>
	<path class="st0" d="M63.1,61.3l6.1,9.8v-9.8h2.5v13.8h-2.6L62.9,65v10.1h-2.5V61.3H63.1z"/>
	<path class="st0" d="M75.7,61.3h2.5v13.8h-2.5V61.3z"/>
	<path class="st0" d="M85.3,61.3h3.2L93,75.1h-2.7l-1-3h-5.1l-1,3h-2.7L85.3,61.3z M84.9,70.2h3.9l-1.9-5.9L84.9,70.2z"/>
</g>
</svg>
